# xmcd CD database file
#
# Track frame offsets:
#	150
#	11145
#	26377
#	30675
#	41197
#	64370
#	78527
#	88517
#	114927
#	128512
#	140775
#	154507
#
# Disc length: 2275 seconds
#
# Revision: 0
# Processed by: cddbd v1.5.1PL0 Copyright (c) Steve Scherf et al.
# Submitted via: CDex 1.51
#
DISCID=9808e10c
DTITLE=Liturgia IV - Advento Ano A
DYEAR=2002
DGENRE=Religioso
TTITLE0=Entrada Ouve se na trra um grito
TTITLE1=Salmo 122 Que alegria quando ouvi q me disseram
TTITLE2=Aclamacao Aleluia Vem mostrar nos Senhor
TTITLE3=Ofertas A nossa oferta apresentamos
TTITLE4=Comunhao Vigia eu vos digo
TTITLE5=Entrada-Eis q de longe vem o senhor
TTITLE6=Salmo 72 Eis que vem o senhor
TTITLE7=Comunhao Ouco uma voz
TTITLE8=Salmo 146 Vem Senhor nos salvar
TTITLE9=Ofertas Nasceu em belem a casa do pao
TTITLE10=Salmo 24 Abre as portas 
TTITLE11=Comunhao O cantico de Maria
EXTD=YEAR: 2002
EXTT0=
EXTT1=
EXTT2=
EXTT3=
EXTT4=
EXTT5=
EXTT6=
EXTT7=
EXTT8=
EXTT9=
EXTT10=
EXTT11=
PLAYORDER=
